<mxfile host="app.diagrams.net" modified="2023-09-18T11:07:21.269Z" agent="Mozilla/5.0 (Windows NT 10.0; Win64; x64) AppleWebKit/537.36 (KHTML, like Gecko) Chrome/116.0.0.0 Safari/537.36" etag="GTKQXGRnkRtQW66_XHZt" version="21.7.4" type="github" pages="3">
  <diagram name="Page-1" id="3-FM0fVxaKomr_sNSSHg">
    <mxGraphModel dx="978" dy="496" grid="0" gridSize="1" guides="1" tooltips="1" connect="1" arrows="1" fold="1" page="1" pageScale="1" pageWidth="1100" pageHeight="1700" background="#000000" math="0" shadow="0">
      <root>
        <mxCell id="0" />
        <mxCell id="1" parent="0" />
        <mxCell id="hk2OgBpOyqfIAF0fETQY-1" value="Requests withdrawal from ATM" style="shape=ellipse;html=1;dashed=0;whiteSpace=wrap;perimeter=ellipsePerimeter;labelBackgroundColor=none;fillColor=#182E3E;strokeColor=#FFFFFF;fontColor=#FFFFFF;" parent="1" vertex="1">
          <mxGeometry x="270" y="115" width="170" height="85" as="geometry" />
        </mxCell>
        <mxCell id="hk2OgBpOyqfIAF0fETQY-2" value="Customer" style="html=1;dashed=0;whiteSpace=wrap;labelBackgroundColor=none;fillColor=#182E3E;strokeColor=#FFFFFF;fontColor=#FFFFFF;" parent="1" vertex="1">
          <mxGeometry x="80" y="130" width="100" height="50" as="geometry" />
        </mxCell>
        <mxCell id="hk2OgBpOyqfIAF0fETQY-3" value="" style="endArrow=classic;html=1;rounded=0;entryX=0;entryY=0.5;entryDx=0;entryDy=0;exitX=1;exitY=0.5;exitDx=0;exitDy=0;labelBackgroundColor=none;strokeColor=#23445D;fontColor=default;" parent="1" source="hk2OgBpOyqfIAF0fETQY-2" target="hk2OgBpOyqfIAF0fETQY-1" edge="1">
          <mxGeometry width="50" height="50" relative="1" as="geometry">
            <mxPoint x="210" y="200" as="sourcePoint" />
            <mxPoint x="260" y="150" as="targetPoint" />
          </mxGeometry>
        </mxCell>
        <mxCell id="hk2OgBpOyqfIAF0fETQY-6" value="Withdrawal req" style="edgeLabel;html=1;align=center;verticalAlign=middle;resizable=0;points=[];labelBackgroundColor=none;fontColor=#FFFFFF;" parent="hk2OgBpOyqfIAF0fETQY-3" vertex="1" connectable="0">
          <mxGeometry x="-0.0662" y="-1" relative="1" as="geometry">
            <mxPoint as="offset" />
          </mxGeometry>
        </mxCell>
        <mxCell id="hk2OgBpOyqfIAF0fETQY-4" value="ATM" style="html=1;dashed=0;whiteSpace=wrap;labelBackgroundColor=none;fillColor=#182E3E;strokeColor=#FFFFFF;fontColor=#FFFFFF;" parent="1" vertex="1">
          <mxGeometry x="540" y="132.5" width="100" height="50" as="geometry" />
        </mxCell>
        <mxCell id="hk2OgBpOyqfIAF0fETQY-5" value="" style="endArrow=classic;html=1;rounded=0;entryX=0;entryY=0.5;entryDx=0;entryDy=0;exitX=1;exitY=0.5;exitDx=0;exitDy=0;labelBackgroundColor=none;strokeColor=#23445D;fontColor=default;" parent="1" source="hk2OgBpOyqfIAF0fETQY-1" target="hk2OgBpOyqfIAF0fETQY-4" edge="1">
          <mxGeometry width="50" height="50" relative="1" as="geometry">
            <mxPoint x="470" y="180" as="sourcePoint" />
            <mxPoint x="520" y="130" as="targetPoint" />
          </mxGeometry>
        </mxCell>
        <mxCell id="hk2OgBpOyqfIAF0fETQY-7" value="Withdrawal req" style="edgeLabel;html=1;align=center;verticalAlign=middle;resizable=0;points=[];labelBackgroundColor=none;fontColor=#FFFFFF;" parent="hk2OgBpOyqfIAF0fETQY-5" vertex="1" connectable="0">
          <mxGeometry x="-0.22" y="4" relative="1" as="geometry">
            <mxPoint y="1" as="offset" />
          </mxGeometry>
        </mxCell>
        <mxCell id="hk2OgBpOyqfIAF0fETQY-10" value="Validates withdrawal" style="shape=ellipse;html=1;dashed=0;whiteSpace=wrap;perimeter=ellipsePerimeter;labelBackgroundColor=none;fillColor=#182E3E;strokeColor=#FFFFFF;fontColor=#FFFFFF;" parent="1" vertex="1">
          <mxGeometry x="730" y="132.5" width="100" height="50" as="geometry" />
        </mxCell>
        <mxCell id="hk2OgBpOyqfIAF0fETQY-11" value="" style="endArrow=classic;html=1;rounded=0;entryX=0;entryY=0.5;entryDx=0;entryDy=0;exitX=1;exitY=0.5;exitDx=0;exitDy=0;labelBackgroundColor=none;strokeColor=#23445D;fontColor=default;" parent="1" source="hk2OgBpOyqfIAF0fETQY-4" target="hk2OgBpOyqfIAF0fETQY-10" edge="1">
          <mxGeometry width="50" height="50" relative="1" as="geometry">
            <mxPoint x="660" y="170" as="sourcePoint" />
            <mxPoint x="710" y="120" as="targetPoint" />
          </mxGeometry>
        </mxCell>
        <mxCell id="hk2OgBpOyqfIAF0fETQY-12" value="Validate Req" style="edgeLabel;html=1;align=center;verticalAlign=middle;resizable=0;points=[];labelBackgroundColor=none;fontColor=#FFFFFF;" parent="hk2OgBpOyqfIAF0fETQY-11" vertex="1" connectable="0">
          <mxGeometry x="-0.0222" y="-1" relative="1" as="geometry">
            <mxPoint y="1" as="offset" />
          </mxGeometry>
        </mxCell>
        <mxCell id="hk2OgBpOyqfIAF0fETQY-13" value="" style="endArrow=classic;html=1;rounded=0;entryX=1;entryY=0.75;entryDx=0;entryDy=0;exitX=0.06;exitY=0.77;exitDx=0;exitDy=0;exitPerimeter=0;labelBackgroundColor=none;strokeColor=#23445D;fontColor=default;" parent="1" source="hk2OgBpOyqfIAF0fETQY-10" target="hk2OgBpOyqfIAF0fETQY-4" edge="1">
          <mxGeometry width="50" height="50" relative="1" as="geometry">
            <mxPoint x="670" y="230" as="sourcePoint" />
            <mxPoint x="720" y="180" as="targetPoint" />
          </mxGeometry>
        </mxCell>
        <mxCell id="hk2OgBpOyqfIAF0fETQY-14" value="Withdrawall validation" style="edgeLabel;html=1;align=center;verticalAlign=middle;resizable=0;points=[];labelBackgroundColor=none;fontColor=#FFFFFF;" parent="hk2OgBpOyqfIAF0fETQY-13" vertex="1" connectable="0">
          <mxGeometry x="-0.0628" y="1" relative="1" as="geometry">
            <mxPoint as="offset" />
          </mxGeometry>
        </mxCell>
        <mxCell id="hk2OgBpOyqfIAF0fETQY-16" value="" style="endArrow=classic;html=1;rounded=0;entryX=1;entryY=0.75;entryDx=0;entryDy=0;exitX=0.076;exitY=0.859;exitDx=0;exitDy=0;exitPerimeter=0;labelBackgroundColor=none;strokeColor=#23445D;fontColor=default;" parent="1" source="hk2OgBpOyqfIAF0fETQY-1" target="hk2OgBpOyqfIAF0fETQY-2" edge="1">
          <mxGeometry width="50" height="50" relative="1" as="geometry">
            <mxPoint x="180" y="220" as="sourcePoint" />
            <mxPoint x="230" y="170" as="targetPoint" />
          </mxGeometry>
        </mxCell>
        <mxCell id="hk2OgBpOyqfIAF0fETQY-17" value="Withdrawal amount" style="edgeLabel;html=1;align=center;verticalAlign=middle;resizable=0;points=[];labelBackgroundColor=none;fontColor=#FFFFFF;" parent="hk2OgBpOyqfIAF0fETQY-16" vertex="1" connectable="0">
          <mxGeometry x="-0.0184" y="2" relative="1" as="geometry">
            <mxPoint as="offset" />
          </mxGeometry>
        </mxCell>
        <mxCell id="hk2OgBpOyqfIAF0fETQY-18" value="Choose between withdrawal or balance check" style="shape=ellipse;html=1;dashed=0;whiteSpace=wrap;perimeter=ellipsePerimeter;labelBackgroundColor=none;fillColor=#182E3E;strokeColor=#FFFFFF;fontColor=#FFFFFF;" parent="1" vertex="1">
          <mxGeometry x="270" y="326" width="170" height="85" as="geometry" />
        </mxCell>
        <mxCell id="hk2OgBpOyqfIAF0fETQY-19" value="Customer" style="html=1;dashed=0;whiteSpace=wrap;labelBackgroundColor=none;fillColor=#182E3E;strokeColor=#FFFFFF;fontColor=#FFFFFF;" parent="1" vertex="1">
          <mxGeometry x="46" y="338" width="100" height="50" as="geometry" />
        </mxCell>
        <mxCell id="hk2OgBpOyqfIAF0fETQY-20" value="" style="endArrow=classic;html=1;rounded=0;entryX=0;entryY=0.5;entryDx=0;entryDy=0;exitX=1;exitY=0.5;exitDx=0;exitDy=0;labelBackgroundColor=none;strokeColor=#23445D;fontColor=default;" parent="1" source="hk2OgBpOyqfIAF0fETQY-19" target="hk2OgBpOyqfIAF0fETQY-18" edge="1">
          <mxGeometry width="50" height="50" relative="1" as="geometry">
            <mxPoint x="211" y="419" as="sourcePoint" />
            <mxPoint x="261" y="369" as="targetPoint" />
          </mxGeometry>
        </mxCell>
        <mxCell id="hk2OgBpOyqfIAF0fETQY-21" value="Enters ATM Card" style="edgeLabel;html=1;align=center;verticalAlign=middle;resizable=0;points=[];labelBackgroundColor=none;fontColor=#FFFFFF;" parent="hk2OgBpOyqfIAF0fETQY-20" vertex="1" connectable="0">
          <mxGeometry x="-0.0662" y="-1" relative="1" as="geometry">
            <mxPoint as="offset" />
          </mxGeometry>
        </mxCell>
        <mxCell id="hk2OgBpOyqfIAF0fETQY-22" value="Withdrawal amount" style="html=1;dashed=0;whiteSpace=wrap;labelBackgroundColor=none;fillColor=#182E3E;strokeColor=#FFFFFF;fontColor=#FFFFFF;" parent="1" vertex="1">
          <mxGeometry x="540" y="343.5" width="100" height="50" as="geometry" />
        </mxCell>
        <mxCell id="hk2OgBpOyqfIAF0fETQY-23" value="" style="endArrow=classic;html=1;rounded=0;entryX=0;entryY=0.5;entryDx=0;entryDy=0;exitX=1;exitY=0.5;exitDx=0;exitDy=0;labelBackgroundColor=none;strokeColor=#23445D;fontColor=default;" parent="1" source="hk2OgBpOyqfIAF0fETQY-18" target="hk2OgBpOyqfIAF0fETQY-22" edge="1">
          <mxGeometry width="50" height="50" relative="1" as="geometry">
            <mxPoint x="471" y="399" as="sourcePoint" />
            <mxPoint x="521" y="349" as="targetPoint" />
          </mxGeometry>
        </mxCell>
        <mxCell id="hk2OgBpOyqfIAF0fETQY-24" value="Withdrawal req" style="edgeLabel;html=1;align=center;verticalAlign=middle;resizable=0;points=[];labelBackgroundColor=none;fontColor=#FFFFFF;" parent="hk2OgBpOyqfIAF0fETQY-23" vertex="1" connectable="0">
          <mxGeometry x="-0.22" y="4" relative="1" as="geometry">
            <mxPoint y="1" as="offset" />
          </mxGeometry>
        </mxCell>
        <mxCell id="hk2OgBpOyqfIAF0fETQY-25" value="" style="endArrow=classic;html=1;rounded=0;entryX=0.976;entryY=0.753;entryDx=0;entryDy=0;entryPerimeter=0;exitX=0.1;exitY=0.95;exitDx=0;exitDy=0;exitPerimeter=0;labelBackgroundColor=none;strokeColor=#23445D;fontColor=default;" parent="1" edge="1">
          <mxGeometry width="50" height="50" relative="1" as="geometry">
            <mxPoint x="541" y="390" as="sourcePoint" />
            <mxPoint x="426.9200000000001" y="389.005" as="targetPoint" />
          </mxGeometry>
        </mxCell>
        <mxCell id="hk2OgBpOyqfIAF0fETQY-27" value="Withdrawal amount" style="edgeLabel;html=1;align=center;verticalAlign=middle;resizable=0;points=[];labelBackgroundColor=none;fontColor=#FFFFFF;" parent="hk2OgBpOyqfIAF0fETQY-25" vertex="1" connectable="0">
          <mxGeometry x="-0.036" y="1" relative="1" as="geometry">
            <mxPoint as="offset" />
          </mxGeometry>
        </mxCell>
        <mxCell id="hk2OgBpOyqfIAF0fETQY-28" value="Enter Pincode" style="shape=ellipse;html=1;dashed=0;whiteSpace=wrap;perimeter=ellipsePerimeter;labelBackgroundColor=none;fillColor=#182E3E;strokeColor=#FFFFFF;fontColor=#FFFFFF;" parent="1" vertex="1">
          <mxGeometry x="731" y="343.5" width="100" height="50" as="geometry" />
        </mxCell>
        <mxCell id="hk2OgBpOyqfIAF0fETQY-29" value="" style="endArrow=classic;html=1;rounded=0;entryX=0;entryY=0.5;entryDx=0;entryDy=0;exitX=1;exitY=0.5;exitDx=0;exitDy=0;labelBackgroundColor=none;strokeColor=#23445D;fontColor=default;" parent="1" source="hk2OgBpOyqfIAF0fETQY-22" target="hk2OgBpOyqfIAF0fETQY-28" edge="1">
          <mxGeometry width="50" height="50" relative="1" as="geometry">
            <mxPoint x="661" y="389" as="sourcePoint" />
            <mxPoint x="711" y="339" as="targetPoint" />
          </mxGeometry>
        </mxCell>
        <mxCell id="hk2OgBpOyqfIAF0fETQY-30" value="Validate Req" style="edgeLabel;html=1;align=center;verticalAlign=middle;resizable=0;points=[];labelBackgroundColor=none;fontColor=#FFFFFF;" parent="hk2OgBpOyqfIAF0fETQY-29" vertex="1" connectable="0">
          <mxGeometry x="-0.0222" y="-1" relative="1" as="geometry">
            <mxPoint y="1" as="offset" />
          </mxGeometry>
        </mxCell>
        <mxCell id="hk2OgBpOyqfIAF0fETQY-31" value="" style="endArrow=classic;html=1;rounded=0;entryX=1;entryY=0.75;entryDx=0;entryDy=0;exitX=0.06;exitY=0.77;exitDx=0;exitDy=0;exitPerimeter=0;labelBackgroundColor=none;strokeColor=#23445D;fontColor=default;" parent="1" source="hk2OgBpOyqfIAF0fETQY-28" target="hk2OgBpOyqfIAF0fETQY-22" edge="1">
          <mxGeometry width="50" height="50" relative="1" as="geometry">
            <mxPoint x="671" y="449" as="sourcePoint" />
            <mxPoint x="721" y="399" as="targetPoint" />
          </mxGeometry>
        </mxCell>
        <mxCell id="hk2OgBpOyqfIAF0fETQY-32" value="Withdrawall validation" style="edgeLabel;html=1;align=center;verticalAlign=middle;resizable=0;points=[];labelBackgroundColor=none;fontColor=#FFFFFF;" parent="hk2OgBpOyqfIAF0fETQY-31" vertex="1" connectable="0">
          <mxGeometry x="-0.0628" y="1" relative="1" as="geometry">
            <mxPoint as="offset" />
          </mxGeometry>
        </mxCell>
        <mxCell id="hk2OgBpOyqfIAF0fETQY-33" value="" style="endArrow=classic;html=1;rounded=0;entryX=1;entryY=0.75;entryDx=0;entryDy=0;exitX=0;exitY=1;exitDx=0;exitDy=0;labelBackgroundColor=none;strokeColor=#23445D;fontColor=default;" parent="1" source="hk2OgBpOyqfIAF0fETQY-18" target="hk2OgBpOyqfIAF0fETQY-19" edge="1">
          <mxGeometry width="50" height="50" relative="1" as="geometry">
            <mxPoint x="181" y="439" as="sourcePoint" />
            <mxPoint x="231" y="389" as="targetPoint" />
          </mxGeometry>
        </mxCell>
        <mxCell id="hk2OgBpOyqfIAF0fETQY-34" value="Withdrawal amount" style="edgeLabel;html=1;align=center;verticalAlign=middle;resizable=0;points=[];labelBackgroundColor=none;fontColor=#FFFFFF;" parent="hk2OgBpOyqfIAF0fETQY-33" vertex="1" connectable="0">
          <mxGeometry x="-0.0184" y="2" relative="1" as="geometry">
            <mxPoint as="offset" />
          </mxGeometry>
        </mxCell>
        <mxCell id="hk2OgBpOyqfIAF0fETQY-35" value="Validate account" style="shape=ellipse;html=1;dashed=0;whiteSpace=wrap;perimeter=ellipsePerimeter;labelBackgroundColor=none;fillColor=#182E3E;strokeColor=#FFFFFF;fontColor=#FFFFFF;" parent="1" vertex="1">
          <mxGeometry x="731" y="451" width="100" height="50" as="geometry" />
        </mxCell>
        <mxCell id="hk2OgBpOyqfIAF0fETQY-36" value="Entered Pincode" style="endArrow=classic;html=1;rounded=0;entryX=0.5;entryY=0;entryDx=0;entryDy=0;exitX=0.5;exitY=1;exitDx=0;exitDy=0;labelBackgroundColor=none;strokeColor=#23445D;fontColor=default;" parent="1" source="hk2OgBpOyqfIAF0fETQY-28" target="hk2OgBpOyqfIAF0fETQY-35" edge="1">
          <mxGeometry x="-0.1429" y="-21" width="50" height="50" relative="1" as="geometry">
            <mxPoint x="726" y="461" as="sourcePoint" />
            <mxPoint x="776" y="411" as="targetPoint" />
            <mxPoint y="1" as="offset" />
          </mxGeometry>
        </mxCell>
        <mxCell id="hk2OgBpOyqfIAF0fETQY-37" value="" style="endArrow=classic;html=1;rounded=0;exitX=1;exitY=0;exitDx=0;exitDy=0;labelBackgroundColor=none;strokeColor=#23445D;fontColor=default;entryX=1;entryY=1;entryDx=0;entryDy=0;" parent="1" source="hk2OgBpOyqfIAF0fETQY-35" edge="1" target="hk2OgBpOyqfIAF0fETQY-28">
          <mxGeometry width="50" height="50" relative="1" as="geometry">
            <mxPoint x="765" y="445" as="sourcePoint" />
            <mxPoint x="815" y="395" as="targetPoint" />
          </mxGeometry>
        </mxCell>
        <mxCell id="hk2OgBpOyqfIAF0fETQY-38" value="Wiithdrawal&amp;nbsp; Validation" style="edgeLabel;html=1;align=center;verticalAlign=middle;resizable=0;points=[];labelBackgroundColor=none;fontColor=#FFFFFF;" parent="hk2OgBpOyqfIAF0fETQY-37" vertex="1" connectable="0">
          <mxGeometry x="-0.0089" y="1" relative="1" as="geometry">
            <mxPoint x="25" y="16" as="offset" />
          </mxGeometry>
        </mxCell>
        <mxCell id="hk2OgBpOyqfIAF0fETQY-39" value="" style="endArrow=classic;html=1;rounded=0;exitX=0;exitY=0.5;exitDx=0;exitDy=0;entryX=0.627;entryY=1.009;entryDx=0;entryDy=0;labelBackgroundColor=none;strokeColor=#23445D;fontColor=default;entryPerimeter=0;" parent="1" source="hk2OgBpOyqfIAF0fETQY-35" edge="1" target="hk2OgBpOyqfIAF0fETQY-19">
          <mxGeometry width="50" height="50" relative="1" as="geometry">
            <mxPoint x="725" y="488.5" as="sourcePoint" />
            <mxPoint x="125" y="401.5" as="targetPoint" />
            <Array as="points">
              <mxPoint x="501" y="461" />
            </Array>
          </mxGeometry>
        </mxCell>
        <mxCell id="hk2OgBpOyqfIAF0fETQY-40" value="Withdrawal Reciept" style="edgeLabel;html=1;align=center;verticalAlign=middle;resizable=0;points=[];labelBackgroundColor=none;fontColor=#FFFFFF;" parent="hk2OgBpOyqfIAF0fETQY-39" vertex="1" connectable="0">
          <mxGeometry x="0.004" y="-1" relative="1" as="geometry">
            <mxPoint x="64" y="12" as="offset" />
          </mxGeometry>
        </mxCell>
        <mxCell id="hk2OgBpOyqfIAF0fETQY-41" value="LOGICAL DFD" style="text;html=1;strokeColor=none;fillColor=none;align=center;verticalAlign=middle;whiteSpace=wrap;rounded=0;labelBackgroundColor=none;fontColor=#FFFFFF;" parent="1" vertex="1">
          <mxGeometry x="421" y="58" width="86" height="30" as="geometry" />
        </mxCell>
        <mxCell id="hk2OgBpOyqfIAF0fETQY-42" value="PHYSICAL DFD" style="text;html=1;strokeColor=none;fillColor=none;align=center;verticalAlign=middle;whiteSpace=wrap;rounded=0;labelBackgroundColor=none;fontColor=#FFFFFF;" parent="1" vertex="1">
          <mxGeometry x="411" y="281" width="96" height="30" as="geometry" />
        </mxCell>
        <mxCell id="oLgQgtJxtb8Tf7t_Kk4S-1" value="" style="endArrow=classic;html=1;rounded=0;entryX=0.994;entryY=0.647;entryDx=0;entryDy=0;entryPerimeter=0;exitX=0;exitY=0.75;exitDx=0;exitDy=0;labelBackgroundColor=none;strokeColor=#23445D;fontColor=default;" edge="1" parent="1" source="hk2OgBpOyqfIAF0fETQY-4" target="hk2OgBpOyqfIAF0fETQY-1">
          <mxGeometry width="50" height="50" relative="1" as="geometry">
            <mxPoint x="464" y="240" as="sourcePoint" />
            <mxPoint x="514" y="190" as="targetPoint" />
          </mxGeometry>
        </mxCell>
        <mxCell id="oLgQgtJxtb8Tf7t_Kk4S-2" value="Withdrawal succes" style="edgeLabel;html=1;align=center;verticalAlign=middle;resizable=0;points=[];labelBackgroundColor=none;fontColor=#FFFFFF;" vertex="1" connectable="0" parent="oLgQgtJxtb8Tf7t_Kk4S-1">
          <mxGeometry x="0.0097" y="1" relative="1" as="geometry">
            <mxPoint as="offset" />
          </mxGeometry>
        </mxCell>
      </root>
    </mxGraphModel>
  </diagram>
  <diagram id="mS2srXKYEAFmFcdaScQR" name="Page-2">
    <mxGraphModel dx="1035" dy="2225" grid="0" gridSize="1" guides="1" tooltips="1" connect="1" arrows="1" fold="1" page="1" pageScale="1" pageWidth="1100" pageHeight="1700" background="#000000" math="0" shadow="0">
      <root>
        <mxCell id="0" />
        <mxCell id="1" parent="0" />
        <mxCell id="KJaWX6mCNSfkjUXkoY-g-1" value="Customer" style="html=1;dashed=0;whiteSpace=wrap;labelBackgroundColor=none;fillColor=#182E3E;strokeColor=#FFFFFF;fontColor=#FFFFFF;" parent="1" vertex="1">
          <mxGeometry x="258" y="-591" width="100" height="50" as="geometry" />
        </mxCell>
        <mxCell id="KJaWX6mCNSfkjUXkoY-g-2" value="Enters Credentials" style="shape=ellipse;html=1;dashed=0;whiteSpace=wrap;perimeter=ellipsePerimeter;labelBackgroundColor=none;fillColor=#182E3E;strokeColor=#FFFFFF;fontColor=#FFFFFF;" parent="1" vertex="1">
          <mxGeometry x="461" y="-602.5" width="100" height="73" as="geometry" />
        </mxCell>
        <mxCell id="KJaWX6mCNSfkjUXkoY-g-3" value="" style="endArrow=classic;html=1;rounded=0;entryX=0;entryY=0.5;entryDx=0;entryDy=0;exitX=1;exitY=0.5;exitDx=0;exitDy=0;labelBackgroundColor=none;strokeColor=#23445D;fontColor=default;" parent="1" edge="1">
          <mxGeometry width="50" height="50" relative="1" as="geometry">
            <mxPoint x="358.0000000000002" y="-566" as="sourcePoint" />
            <mxPoint x="461.0000000000002" y="-566" as="targetPoint" />
          </mxGeometry>
        </mxCell>
        <mxCell id="_RBi6fjWwrcwms86xOGi-1" value="Customer Info" style="edgeLabel;html=1;align=center;verticalAlign=middle;resizable=0;points=[];labelBackgroundColor=none;fontColor=#FFFFFF;" parent="KJaWX6mCNSfkjUXkoY-g-3" vertex="1" connectable="0">
          <mxGeometry x="0.068" y="-1" relative="1" as="geometry">
            <mxPoint as="offset" />
          </mxGeometry>
        </mxCell>
        <mxCell id="_RBi6fjWwrcwms86xOGi-3" value="" style="endArrow=classic;html=1;rounded=0;entryX=0;entryY=0.5;entryDx=0;entryDy=0;labelBackgroundColor=none;strokeColor=#23445D;fontColor=default;" parent="1" edge="1">
          <mxGeometry width="50" height="50" relative="1" as="geometry">
            <mxPoint x="563" y="-565" as="sourcePoint" />
            <mxPoint x="692" y="-566" as="targetPoint" />
          </mxGeometry>
        </mxCell>
        <mxCell id="_RBi6fjWwrcwms86xOGi-4" value="Valid Credentials" style="edgeLabel;html=1;align=center;verticalAlign=middle;resizable=0;points=[];labelBackgroundColor=none;fontColor=#FFFFFF;" parent="_RBi6fjWwrcwms86xOGi-3" vertex="1" connectable="0">
          <mxGeometry x="0.0425" y="-2" relative="1" as="geometry">
            <mxPoint as="offset" />
          </mxGeometry>
        </mxCell>
        <mxCell id="_RBi6fjWwrcwms86xOGi-8" value="Ticket Counter" style="html=1;dashed=0;whiteSpace=wrap;labelBackgroundColor=none;fillColor=#182E3E;strokeColor=#FFFFFF;fontColor=#FFFFFF;" parent="1" vertex="1">
          <mxGeometry x="692" y="-591" width="100" height="50" as="geometry" />
        </mxCell>
        <mxCell id="_RBi6fjWwrcwms86xOGi-9" value="" style="endArrow=classic;html=1;rounded=0;labelBackgroundColor=none;strokeColor=#23445D;fontColor=default;" parent="1" edge="1">
          <mxGeometry width="50" height="50" relative="1" as="geometry">
            <mxPoint x="751" y="-596" as="sourcePoint" />
            <mxPoint x="312" y="-593" as="targetPoint" />
            <Array as="points">
              <mxPoint x="525" y="-631" />
            </Array>
          </mxGeometry>
        </mxCell>
        <mxCell id="_RBi6fjWwrcwms86xOGi-10" value="Ticket Receipt" style="edgeLabel;html=1;align=center;verticalAlign=middle;resizable=0;points=[];labelBackgroundColor=none;fontColor=#FFFFFF;" parent="_RBi6fjWwrcwms86xOGi-9" vertex="1" connectable="0">
          <mxGeometry x="0.0112" y="-7" relative="1" as="geometry">
            <mxPoint as="offset" />
          </mxGeometry>
        </mxCell>
        <mxCell id="_RBi6fjWwrcwms86xOGi-11" value="Customer" style="html=1;dashed=0;whiteSpace=wrap;labelBackgroundColor=none;fillColor=#182E3E;strokeColor=#FFFFFF;fontColor=#FFFFFF;" parent="1" vertex="1">
          <mxGeometry x="82" y="-337" width="100" height="50" as="geometry" />
        </mxCell>
        <mxCell id="_RBi6fjWwrcwms86xOGi-12" value="Enters Credentials" style="shape=ellipse;html=1;dashed=0;whiteSpace=wrap;perimeter=ellipsePerimeter;labelBackgroundColor=none;fillColor=#182E3E;strokeColor=#FFFFFF;fontColor=#FFFFFF;" parent="1" vertex="1">
          <mxGeometry x="285" y="-348.5" width="100" height="73" as="geometry" />
        </mxCell>
        <mxCell id="_RBi6fjWwrcwms86xOGi-13" value="" style="endArrow=classic;html=1;rounded=0;entryX=0;entryY=0.5;entryDx=0;entryDy=0;exitX=1;exitY=0.5;exitDx=0;exitDy=0;labelBackgroundColor=none;strokeColor=#23445D;fontColor=default;" parent="1" source="_RBi6fjWwrcwms86xOGi-11" target="_RBi6fjWwrcwms86xOGi-12" edge="1">
          <mxGeometry width="50" height="50" relative="1" as="geometry">
            <mxPoint x="204" y="-293" as="sourcePoint" />
            <mxPoint x="254" y="-343" as="targetPoint" />
          </mxGeometry>
        </mxCell>
        <mxCell id="_RBi6fjWwrcwms86xOGi-14" value="Customer Info" style="edgeLabel;html=1;align=center;verticalAlign=middle;resizable=0;points=[];labelBackgroundColor=none;fontColor=#FFFFFF;" parent="_RBi6fjWwrcwms86xOGi-13" vertex="1" connectable="0">
          <mxGeometry x="0.068" y="-1" relative="1" as="geometry">
            <mxPoint as="offset" />
          </mxGeometry>
        </mxCell>
        <mxCell id="_RBi6fjWwrcwms86xOGi-15" value="" style="endArrow=classic;html=1;rounded=0;labelBackgroundColor=none;strokeColor=#23445D;fontColor=default;" parent="1" edge="1">
          <mxGeometry width="50" height="50" relative="1" as="geometry">
            <mxPoint x="387" y="-311" as="sourcePoint" />
            <mxPoint x="520" y="-312" as="targetPoint" />
          </mxGeometry>
        </mxCell>
        <mxCell id="_RBi6fjWwrcwms86xOGi-16" value="Valid Credentials" style="edgeLabel;html=1;align=center;verticalAlign=middle;resizable=0;points=[];labelBackgroundColor=none;fontColor=#FFFFFF;" parent="_RBi6fjWwrcwms86xOGi-15" vertex="1" connectable="0">
          <mxGeometry x="0.0425" y="-2" relative="1" as="geometry">
            <mxPoint as="offset" />
          </mxGeometry>
        </mxCell>
        <mxCell id="_RBi6fjWwrcwms86xOGi-20" value="" style="endArrow=classic;html=1;rounded=0;exitX=0.5;exitY=1;exitDx=0;exitDy=0;labelBackgroundColor=none;strokeColor=#23445D;fontColor=default;" parent="1" source="_RBi6fjWwrcwms86xOGi-12" target="_RBi6fjWwrcwms86xOGi-21" edge="1">
          <mxGeometry width="50" height="50" relative="1" as="geometry">
            <mxPoint x="305" y="-221" as="sourcePoint" />
            <mxPoint x="335" y="-221" as="targetPoint" />
          </mxGeometry>
        </mxCell>
        <mxCell id="_RBi6fjWwrcwms86xOGi-21" value="Invalid credentials" style="shape=ellipse;html=1;dashed=0;whiteSpace=wrap;perimeter=ellipsePerimeter;labelBackgroundColor=none;fillColor=#182E3E;strokeColor=#FFFFFF;fontColor=#FFFFFF;" parent="1" vertex="1">
          <mxGeometry x="304" y="-237" width="62" height="54" as="geometry" />
        </mxCell>
        <mxCell id="_RBi6fjWwrcwms86xOGi-23" value="Ticket Class Requested" style="shape=ellipse;html=1;dashed=0;whiteSpace=wrap;aspect=fixed;perimeter=ellipsePerimeter;labelBackgroundColor=none;fillColor=#182E3E;strokeColor=#FFFFFF;fontColor=#FFFFFF;" parent="1" vertex="1">
          <mxGeometry x="509" y="-348.5" width="74" height="74" as="geometry" />
        </mxCell>
        <mxCell id="_RBi6fjWwrcwms86xOGi-24" value="" style="endArrow=classic;html=1;rounded=0;entryX=0;entryY=0.491;entryDx=0;entryDy=0;entryPerimeter=0;labelBackgroundColor=none;strokeColor=#23445D;fontColor=default;" parent="1" target="_RBi6fjWwrcwms86xOGi-26" edge="1">
          <mxGeometry width="50" height="50" relative="1" as="geometry">
            <mxPoint x="583" y="-312" as="sourcePoint" />
            <mxPoint x="683" y="-314" as="targetPoint" />
          </mxGeometry>
        </mxCell>
        <mxCell id="_RBi6fjWwrcwms86xOGi-25" value="Checks Availability" style="edgeLabel;html=1;align=center;verticalAlign=middle;resizable=0;points=[];labelBackgroundColor=none;fontColor=#FFFFFF;" parent="_RBi6fjWwrcwms86xOGi-24" vertex="1" connectable="0">
          <mxGeometry x="0.0392" y="-2" relative="1" as="geometry">
            <mxPoint x="-2" y="-2" as="offset" />
          </mxGeometry>
        </mxCell>
        <mxCell id="1k1qscw9XzA1oaVKW1rc-5" value="" style="edgeStyle=orthogonalEdgeStyle;rounded=0;orthogonalLoop=1;jettySize=auto;html=1;strokeColor=#23445D;" edge="1" parent="1" source="_RBi6fjWwrcwms86xOGi-26" target="_RBi6fjWwrcwms86xOGi-28">
          <mxGeometry relative="1" as="geometry" />
        </mxCell>
        <mxCell id="_RBi6fjWwrcwms86xOGi-26" value="Available Ticket" style="shape=ellipse;html=1;dashed=0;whiteSpace=wrap;perimeter=ellipsePerimeter;labelBackgroundColor=none;fillColor=#182E3E;strokeColor=#FFFFFF;fontColor=#FFFFFF;" parent="1" vertex="1">
          <mxGeometry x="690" y="-338.5" width="75" height="61.5" as="geometry" />
        </mxCell>
        <mxCell id="_RBi6fjWwrcwms86xOGi-28" value="Admin" style="html=1;dashed=0;whiteSpace=wrap;labelBackgroundColor=none;fillColor=#182E3E;strokeColor=#FFFFFF;fontColor=#FFFFFF;" parent="1" vertex="1">
          <mxGeometry x="811" y="-332.75" width="100" height="50" as="geometry" />
        </mxCell>
        <mxCell id="_RBi6fjWwrcwms86xOGi-29" value="" style="endArrow=classic;html=1;rounded=0;labelBackgroundColor=none;strokeColor=#23445D;fontColor=default;" parent="1" target="_RBi6fjWwrcwms86xOGi-28" edge="1">
          <mxGeometry width="50" height="50" relative="1" as="geometry">
            <mxPoint x="758" y="-310" as="sourcePoint" />
            <mxPoint x="811" y="-353" as="targetPoint" />
          </mxGeometry>
        </mxCell>
        <mxCell id="_RBi6fjWwrcwms86xOGi-30" value="Ticket Info" style="edgeLabel;html=1;align=center;verticalAlign=middle;resizable=0;points=[];labelBackgroundColor=none;fontColor=#FFFFFF;" parent="_RBi6fjWwrcwms86xOGi-29" vertex="1" connectable="0">
          <mxGeometry x="0.0192" relative="1" as="geometry">
            <mxPoint as="offset" />
          </mxGeometry>
        </mxCell>
        <mxCell id="_RBi6fjWwrcwms86xOGi-31" value="" style="endArrow=classic;html=1;rounded=0;exitX=1;exitY=0.75;exitDx=0;exitDy=0;labelBackgroundColor=none;strokeColor=#23445D;fontColor=default;" parent="1" target="_RBi6fjWwrcwms86xOGi-32" edge="1">
          <mxGeometry width="50" height="50" relative="1" as="geometry">
            <mxPoint x="854" y="-332.75" as="sourcePoint" />
            <mxPoint x="854" y="-383" as="targetPoint" />
          </mxGeometry>
        </mxCell>
        <mxCell id="_RBi6fjWwrcwms86xOGi-33" value="Ticket info" style="edgeLabel;html=1;align=center;verticalAlign=middle;resizable=0;points=[];labelBackgroundColor=none;fontColor=#FFFFFF;" parent="_RBi6fjWwrcwms86xOGi-31" vertex="1" connectable="0">
          <mxGeometry x="0.0147" y="-2" relative="1" as="geometry">
            <mxPoint as="offset" />
          </mxGeometry>
        </mxCell>
        <mxCell id="_RBi6fjWwrcwms86xOGi-32" value="Validated Ticket" style="shape=ellipse;html=1;dashed=0;whiteSpace=wrap;perimeter=ellipsePerimeter;labelBackgroundColor=none;fillColor=#182E3E;strokeColor=#FFFFFF;fontColor=#FFFFFF;" parent="1" vertex="1">
          <mxGeometry x="807" y="-438" width="78" height="48" as="geometry" />
        </mxCell>
        <mxCell id="_RBi6fjWwrcwms86xOGi-34" value="" style="endArrow=classic;html=1;rounded=0;exitX=0;exitY=0.5;exitDx=0;exitDy=0;labelBackgroundColor=none;strokeColor=#23445D;fontColor=default;" parent="1" source="_RBi6fjWwrcwms86xOGi-32" target="_RBi6fjWwrcwms86xOGi-35" edge="1">
          <mxGeometry width="50" height="50" relative="1" as="geometry">
            <mxPoint x="702.5" y="-381" as="sourcePoint" />
            <mxPoint x="694" y="-414" as="targetPoint" />
          </mxGeometry>
        </mxCell>
        <mxCell id="_RBi6fjWwrcwms86xOGi-35" value="Ticket Counter" style="html=1;dashed=0;whiteSpace=wrap;labelBackgroundColor=none;fillColor=#182E3E;strokeColor=#FFFFFF;fontColor=#FFFFFF;" parent="1" vertex="1">
          <mxGeometry x="644" y="-439" width="100" height="50" as="geometry" />
        </mxCell>
        <mxCell id="_RBi6fjWwrcwms86xOGi-37" value="Ticket details&amp;nbsp;" style="shape=ellipse;html=1;dashed=0;whiteSpace=wrap;perimeter=ellipsePerimeter;labelBackgroundColor=none;fillColor=#182E3E;strokeColor=#FFFFFF;fontColor=#FFFFFF;" parent="1" vertex="1">
          <mxGeometry x="455" y="-433" width="69" height="53" as="geometry" />
        </mxCell>
        <mxCell id="_RBi6fjWwrcwms86xOGi-38" value="" style="endArrow=classic;html=1;rounded=0;entryX=1;entryY=0.5;entryDx=0;entryDy=0;exitX=-0.03;exitY=0.64;exitDx=0;exitDy=0;exitPerimeter=0;labelBackgroundColor=none;strokeColor=#23445D;fontColor=default;" parent="1" source="_RBi6fjWwrcwms86xOGi-35" target="_RBi6fjWwrcwms86xOGi-37" edge="1">
          <mxGeometry width="50" height="50" relative="1" as="geometry">
            <mxPoint x="573" y="-362" as="sourcePoint" />
            <mxPoint x="623" y="-412" as="targetPoint" />
          </mxGeometry>
        </mxCell>
        <mxCell id="_RBi6fjWwrcwms86xOGi-39" value="tTicket receipt" style="edgeLabel;html=1;align=center;verticalAlign=middle;resizable=0;points=[];labelBackgroundColor=none;fontColor=#FFFFFF;" parent="_RBi6fjWwrcwms86xOGi-38" vertex="1" connectable="0">
          <mxGeometry x="-0.0767" y="3" relative="1" as="geometry">
            <mxPoint as="offset" />
          </mxGeometry>
        </mxCell>
        <mxCell id="_RBi6fjWwrcwms86xOGi-40" value="" style="endArrow=classic;html=1;rounded=0;labelBackgroundColor=none;strokeColor=#23445D;fontColor=default;" parent="1" source="_RBi6fjWwrcwms86xOGi-37" target="_RBi6fjWwrcwms86xOGi-11" edge="1">
          <mxGeometry width="50" height="50" relative="1" as="geometry">
            <mxPoint x="371" y="-370" as="sourcePoint" />
            <mxPoint x="421" y="-420" as="targetPoint" />
          </mxGeometry>
        </mxCell>
        <mxCell id="_RBi6fjWwrcwms86xOGi-41" value="Ticket Reciept" style="edgeLabel;html=1;align=center;verticalAlign=middle;resizable=0;points=[];labelBackgroundColor=none;fontColor=#FFFFFF;" parent="_RBi6fjWwrcwms86xOGi-40" vertex="1" connectable="0">
          <mxGeometry x="-0.0214" y="2" relative="1" as="geometry">
            <mxPoint as="offset" />
          </mxGeometry>
        </mxCell>
        <mxCell id="1k1qscw9XzA1oaVKW1rc-1" value="LOGICAL DFD" style="text;html=1;strokeColor=none;fillColor=none;align=center;verticalAlign=middle;whiteSpace=wrap;rounded=0;fontColor=#FFFFFF;" vertex="1" parent="1">
          <mxGeometry x="480" y="-713" width="88" height="30" as="geometry" />
        </mxCell>
        <mxCell id="1k1qscw9XzA1oaVKW1rc-3" value="PHYSICAL DFD" style="text;html=1;strokeColor=none;fillColor=none;align=center;verticalAlign=middle;whiteSpace=wrap;rounded=0;fontColor=#FFFFFF;" vertex="1" parent="1">
          <mxGeometry x="480" y="-490" width="93" height="30" as="geometry" />
        </mxCell>
      </root>
    </mxGraphModel>
  </diagram>
  <diagram id="tMngQn3YwW1P015KU9I6" name="Page-3">
    <mxGraphModel dx="1035" dy="1625" grid="0" gridSize="1" guides="1" tooltips="1" connect="1" arrows="1" fold="1" page="1" pageScale="1" pageWidth="850" pageHeight="1100" background="#000000" math="0" shadow="0">
      <root>
        <mxCell id="0" />
        <mxCell id="1" parent="0" />
        <mxCell id="RjyrQE5ZJLNY4DenGKnt-1" value="Customer" style="html=1;dashed=0;whiteSpace=wrap;labelBackgroundColor=none;fillColor=#182E3E;strokeColor=#FFFFFF;fontColor=#FFFFFF;" vertex="1" parent="1">
          <mxGeometry x="197" y="-474" width="100" height="50" as="geometry" />
        </mxCell>
        <mxCell id="RjyrQE5ZJLNY4DenGKnt-2" value="Enters Credentials" style="shape=ellipse;html=1;dashed=0;whiteSpace=wrap;perimeter=ellipsePerimeter;labelBackgroundColor=none;fillColor=#182E3E;strokeColor=#FFFFFF;fontColor=#FFFFFF;" vertex="1" parent="1">
          <mxGeometry x="400" y="-485.5" width="100" height="73" as="geometry" />
        </mxCell>
        <mxCell id="RjyrQE5ZJLNY4DenGKnt-3" value="" style="endArrow=classic;html=1;rounded=0;entryX=0;entryY=0.5;entryDx=0;entryDy=0;exitX=1;exitY=0.5;exitDx=0;exitDy=0;labelBackgroundColor=none;strokeColor=#23445D;fontColor=default;" edge="1" parent="1" source="RjyrQE5ZJLNY4DenGKnt-1" target="RjyrQE5ZJLNY4DenGKnt-2">
          <mxGeometry width="50" height="50" relative="1" as="geometry">
            <mxPoint x="319" y="-430" as="sourcePoint" />
            <mxPoint x="369" y="-480" as="targetPoint" />
          </mxGeometry>
        </mxCell>
        <mxCell id="RjyrQE5ZJLNY4DenGKnt-4" value="Customer Info" style="edgeLabel;html=1;align=center;verticalAlign=middle;resizable=0;points=[];labelBackgroundColor=none;fontColor=#FFFFFF;" vertex="1" connectable="0" parent="RjyrQE5ZJLNY4DenGKnt-3">
          <mxGeometry x="0.068" y="-1" relative="1" as="geometry">
            <mxPoint as="offset" />
          </mxGeometry>
        </mxCell>
        <mxCell id="RjyrQE5ZJLNY4DenGKnt-5" value="" style="endArrow=classic;html=1;rounded=0;entryX=0;entryY=0.5;entryDx=0;entryDy=0;labelBackgroundColor=none;strokeColor=#23445D;fontColor=default;" edge="1" parent="1" target="RjyrQE5ZJLNY4DenGKnt-7">
          <mxGeometry width="50" height="50" relative="1" as="geometry">
            <mxPoint x="502" y="-448" as="sourcePoint" />
            <mxPoint x="619" y="-449" as="targetPoint" />
          </mxGeometry>
        </mxCell>
        <mxCell id="RjyrQE5ZJLNY4DenGKnt-6" value="Valid Credentials" style="edgeLabel;html=1;align=center;verticalAlign=middle;resizable=0;points=[];labelBackgroundColor=none;fontColor=#FFFFFF;" vertex="1" connectable="0" parent="RjyrQE5ZJLNY4DenGKnt-5">
          <mxGeometry x="0.0425" y="-2" relative="1" as="geometry">
            <mxPoint as="offset" />
          </mxGeometry>
        </mxCell>
        <mxCell id="RjyrQE5ZJLNY4DenGKnt-7" value="Librarian" style="html=1;dashed=0;whiteSpace=wrap;labelBackgroundColor=none;fillColor=#182E3E;strokeColor=#FFFFFF;fontColor=#FFFFFF;" vertex="1" parent="1">
          <mxGeometry x="631" y="-474" width="100" height="50" as="geometry" />
        </mxCell>
        <mxCell id="RjyrQE5ZJLNY4DenGKnt-8" value="" style="endArrow=classic;html=1;rounded=0;labelBackgroundColor=none;strokeColor=#23445D;fontColor=default;" edge="1" parent="1">
          <mxGeometry width="50" height="50" relative="1" as="geometry">
            <mxPoint x="690" y="-479" as="sourcePoint" />
            <mxPoint x="251" y="-476" as="targetPoint" />
            <Array as="points">
              <mxPoint x="464" y="-514" />
            </Array>
          </mxGeometry>
        </mxCell>
        <mxCell id="RjyrQE5ZJLNY4DenGKnt-9" value="Book Delivered" style="edgeLabel;html=1;align=center;verticalAlign=middle;resizable=0;points=[];labelBackgroundColor=none;fontColor=#FFFFFF;" vertex="1" connectable="0" parent="RjyrQE5ZJLNY4DenGKnt-8">
          <mxGeometry x="0.0112" y="-7" relative="1" as="geometry">
            <mxPoint as="offset" />
          </mxGeometry>
        </mxCell>
        <mxCell id="RjyrQE5ZJLNY4DenGKnt-10" value="Customer" style="html=1;dashed=0;whiteSpace=wrap;labelBackgroundColor=none;fillColor=#182E3E;strokeColor=#FFFFFF;fontColor=#FFFFFF;" vertex="1" parent="1">
          <mxGeometry x="79" y="-241" width="100" height="50" as="geometry" />
        </mxCell>
        <mxCell id="RjyrQE5ZJLNY4DenGKnt-11" value="Enters Credentials" style="shape=ellipse;html=1;dashed=0;whiteSpace=wrap;perimeter=ellipsePerimeter;labelBackgroundColor=none;fillColor=#182E3E;strokeColor=#FFFFFF;fontColor=#FFFFFF;" vertex="1" parent="1">
          <mxGeometry x="282" y="-252.5" width="100" height="73" as="geometry" />
        </mxCell>
        <mxCell id="RjyrQE5ZJLNY4DenGKnt-12" value="" style="endArrow=classic;html=1;rounded=0;entryX=0;entryY=0.5;entryDx=0;entryDy=0;exitX=1;exitY=0.5;exitDx=0;exitDy=0;labelBackgroundColor=none;strokeColor=#23445D;fontColor=default;" edge="1" parent="1" source="RjyrQE5ZJLNY4DenGKnt-10" target="RjyrQE5ZJLNY4DenGKnt-11">
          <mxGeometry width="50" height="50" relative="1" as="geometry">
            <mxPoint x="201" y="-197" as="sourcePoint" />
            <mxPoint x="251" y="-247" as="targetPoint" />
          </mxGeometry>
        </mxCell>
        <mxCell id="RjyrQE5ZJLNY4DenGKnt-13" value="Customer Info" style="edgeLabel;html=1;align=center;verticalAlign=middle;resizable=0;points=[];labelBackgroundColor=none;fontColor=#FFFFFF;" vertex="1" connectable="0" parent="RjyrQE5ZJLNY4DenGKnt-12">
          <mxGeometry x="0.068" y="-1" relative="1" as="geometry">
            <mxPoint as="offset" />
          </mxGeometry>
        </mxCell>
        <mxCell id="RjyrQE5ZJLNY4DenGKnt-14" value="" style="endArrow=classic;html=1;rounded=0;labelBackgroundColor=none;strokeColor=#23445D;fontColor=default;" edge="1" parent="1">
          <mxGeometry width="50" height="50" relative="1" as="geometry">
            <mxPoint x="384" y="-215" as="sourcePoint" />
            <mxPoint x="517" y="-216" as="targetPoint" />
          </mxGeometry>
        </mxCell>
        <mxCell id="RjyrQE5ZJLNY4DenGKnt-15" value="Valid Credentials" style="edgeLabel;html=1;align=center;verticalAlign=middle;resizable=0;points=[];labelBackgroundColor=none;fontColor=#FFFFFF;" vertex="1" connectable="0" parent="RjyrQE5ZJLNY4DenGKnt-14">
          <mxGeometry x="0.0425" y="-2" relative="1" as="geometry">
            <mxPoint as="offset" />
          </mxGeometry>
        </mxCell>
        <mxCell id="RjyrQE5ZJLNY4DenGKnt-16" value="" style="endArrow=classic;html=1;rounded=0;exitX=0.5;exitY=1;exitDx=0;exitDy=0;labelBackgroundColor=none;strokeColor=#23445D;fontColor=default;" edge="1" parent="1" source="RjyrQE5ZJLNY4DenGKnt-11" target="RjyrQE5ZJLNY4DenGKnt-17">
          <mxGeometry width="50" height="50" relative="1" as="geometry">
            <mxPoint x="302" y="-125" as="sourcePoint" />
            <mxPoint x="332" y="-125" as="targetPoint" />
          </mxGeometry>
        </mxCell>
        <mxCell id="RjyrQE5ZJLNY4DenGKnt-17" value="Invalid credentials" style="shape=ellipse;html=1;dashed=0;whiteSpace=wrap;perimeter=ellipsePerimeter;labelBackgroundColor=none;fillColor=#182E3E;strokeColor=#FFFFFF;fontColor=#FFFFFF;" vertex="1" parent="1">
          <mxGeometry x="301" y="-141" width="62" height="54" as="geometry" />
        </mxCell>
        <mxCell id="RjyrQE5ZJLNY4DenGKnt-18" value="Book Genre Requested" style="shape=ellipse;html=1;dashed=0;whiteSpace=wrap;aspect=fixed;perimeter=ellipsePerimeter;labelBackgroundColor=none;fillColor=#182E3E;strokeColor=#FFFFFF;fontColor=#FFFFFF;" vertex="1" parent="1">
          <mxGeometry x="506" y="-252.5" width="74" height="74" as="geometry" />
        </mxCell>
        <mxCell id="RjyrQE5ZJLNY4DenGKnt-19" value="" style="endArrow=classic;html=1;rounded=0;entryX=0;entryY=0.491;entryDx=0;entryDy=0;entryPerimeter=0;labelBackgroundColor=none;strokeColor=#23445D;fontColor=default;" edge="1" parent="1" target="RjyrQE5ZJLNY4DenGKnt-21">
          <mxGeometry width="50" height="50" relative="1" as="geometry">
            <mxPoint x="580" y="-216" as="sourcePoint" />
            <mxPoint x="680" y="-218" as="targetPoint" />
          </mxGeometry>
        </mxCell>
        <mxCell id="RjyrQE5ZJLNY4DenGKnt-20" value="Checks Availability" style="edgeLabel;html=1;align=center;verticalAlign=middle;resizable=0;points=[];labelBackgroundColor=none;fontColor=#FFFFFF;" vertex="1" connectable="0" parent="RjyrQE5ZJLNY4DenGKnt-19">
          <mxGeometry x="0.0392" y="-2" relative="1" as="geometry">
            <mxPoint x="-2" y="-2" as="offset" />
          </mxGeometry>
        </mxCell>
        <mxCell id="RjyrQE5ZJLNY4DenGKnt-21" value="Available Book" style="shape=ellipse;html=1;dashed=0;whiteSpace=wrap;perimeter=ellipsePerimeter;labelBackgroundColor=none;fillColor=#182E3E;strokeColor=#FFFFFF;fontColor=#FFFFFF;" vertex="1" parent="1">
          <mxGeometry x="687" y="-242.5" width="75" height="61.5" as="geometry" />
        </mxCell>
        <mxCell id="RjyrQE5ZJLNY4DenGKnt-22" value="Admin" style="html=1;dashed=0;whiteSpace=wrap;labelBackgroundColor=none;fillColor=#182E3E;strokeColor=#FFFFFF;fontColor=#FFFFFF;" vertex="1" parent="1">
          <mxGeometry x="808" y="-236.75" width="100" height="50" as="geometry" />
        </mxCell>
        <mxCell id="RjyrQE5ZJLNY4DenGKnt-23" value="" style="endArrow=classic;html=1;rounded=0;labelBackgroundColor=none;strokeColor=#23445D;fontColor=default;" edge="1" parent="1">
          <mxGeometry width="50" height="50" relative="1" as="geometry">
            <mxPoint x="757" y="-214" as="sourcePoint" />
            <mxPoint x="810" y="-212.8422330097087" as="targetPoint" />
          </mxGeometry>
        </mxCell>
        <mxCell id="RjyrQE5ZJLNY4DenGKnt-24" value="Book Info" style="edgeLabel;html=1;align=center;verticalAlign=middle;resizable=0;points=[];labelBackgroundColor=none;fontColor=#FFFFFF;" vertex="1" connectable="0" parent="RjyrQE5ZJLNY4DenGKnt-23">
          <mxGeometry x="0.0192" relative="1" as="geometry">
            <mxPoint as="offset" />
          </mxGeometry>
        </mxCell>
        <mxCell id="RjyrQE5ZJLNY4DenGKnt-25" value="" style="endArrow=classic;html=1;rounded=0;exitX=1;exitY=0.75;exitDx=0;exitDy=0;labelBackgroundColor=none;strokeColor=#23445D;fontColor=default;" edge="1" parent="1" target="RjyrQE5ZJLNY4DenGKnt-27">
          <mxGeometry width="50" height="50" relative="1" as="geometry">
            <mxPoint x="851" y="-236.75" as="sourcePoint" />
            <mxPoint x="851" y="-287" as="targetPoint" />
          </mxGeometry>
        </mxCell>
        <mxCell id="RjyrQE5ZJLNY4DenGKnt-26" value="Book Info" style="edgeLabel;html=1;align=center;verticalAlign=middle;resizable=0;points=[];labelBackgroundColor=none;fontColor=#FFFFFF;" vertex="1" connectable="0" parent="RjyrQE5ZJLNY4DenGKnt-25">
          <mxGeometry x="0.0147" y="-2" relative="1" as="geometry">
            <mxPoint as="offset" />
          </mxGeometry>
        </mxCell>
        <mxCell id="RjyrQE5ZJLNY4DenGKnt-27" value="Validated Request" style="shape=ellipse;html=1;dashed=0;whiteSpace=wrap;perimeter=ellipsePerimeter;labelBackgroundColor=none;fillColor=#182E3E;strokeColor=#FFFFFF;fontColor=#FFFFFF;" vertex="1" parent="1">
          <mxGeometry x="804" y="-342" width="78" height="48" as="geometry" />
        </mxCell>
        <mxCell id="RjyrQE5ZJLNY4DenGKnt-28" value="" style="endArrow=classic;html=1;rounded=0;exitX=0;exitY=0.5;exitDx=0;exitDy=0;labelBackgroundColor=none;strokeColor=#23445D;fontColor=default;" edge="1" parent="1" source="RjyrQE5ZJLNY4DenGKnt-27" target="RjyrQE5ZJLNY4DenGKnt-29">
          <mxGeometry width="50" height="50" relative="1" as="geometry">
            <mxPoint x="699.5" y="-285" as="sourcePoint" />
            <mxPoint x="691" y="-318" as="targetPoint" />
          </mxGeometry>
        </mxCell>
        <mxCell id="RjyrQE5ZJLNY4DenGKnt-29" value="Accountant" style="html=1;dashed=0;whiteSpace=wrap;labelBackgroundColor=none;fillColor=#182E3E;strokeColor=#FFFFFF;fontColor=#FFFFFF;" vertex="1" parent="1">
          <mxGeometry x="641" y="-343" width="100" height="50" as="geometry" />
        </mxCell>
        <mxCell id="RjyrQE5ZJLNY4DenGKnt-30" value="Bookshelf details&amp;nbsp;" style="shape=ellipse;html=1;dashed=0;whiteSpace=wrap;perimeter=ellipsePerimeter;labelBackgroundColor=none;fillColor=#182E3E;strokeColor=#FFFFFF;fontColor=#FFFFFF;" vertex="1" parent="1">
          <mxGeometry x="452" y="-337" width="69" height="53" as="geometry" />
        </mxCell>
        <mxCell id="RjyrQE5ZJLNY4DenGKnt-31" value="" style="endArrow=classic;html=1;rounded=0;entryX=1;entryY=0.5;entryDx=0;entryDy=0;exitX=-0.03;exitY=0.64;exitDx=0;exitDy=0;exitPerimeter=0;labelBackgroundColor=none;strokeColor=#000000;fontColor=default;" edge="1" parent="1" source="RjyrQE5ZJLNY4DenGKnt-29" target="RjyrQE5ZJLNY4DenGKnt-30">
          <mxGeometry width="50" height="50" relative="1" as="geometry">
            <mxPoint x="570" y="-266" as="sourcePoint" />
            <mxPoint x="620" y="-316" as="targetPoint" />
          </mxGeometry>
        </mxCell>
        <mxCell id="RjyrQE5ZJLNY4DenGKnt-33" value="" style="endArrow=classic;html=1;rounded=0;labelBackgroundColor=none;strokeColor=#23445D;fontColor=default;" edge="1" parent="1" source="RjyrQE5ZJLNY4DenGKnt-30" target="RjyrQE5ZJLNY4DenGKnt-10">
          <mxGeometry width="50" height="50" relative="1" as="geometry">
            <mxPoint x="368" y="-274" as="sourcePoint" />
            <mxPoint x="418" y="-324" as="targetPoint" />
          </mxGeometry>
        </mxCell>
        <mxCell id="RjyrQE5ZJLNY4DenGKnt-34" value="Book Reciept" style="edgeLabel;html=1;align=center;verticalAlign=middle;resizable=0;points=[];labelBackgroundColor=none;fontColor=#FFFFFF;" vertex="1" connectable="0" parent="RjyrQE5ZJLNY4DenGKnt-33">
          <mxGeometry x="-0.0214" y="2" relative="1" as="geometry">
            <mxPoint y="-4" as="offset" />
          </mxGeometry>
        </mxCell>
        <mxCell id="mGd0udFy5jh_83Vz7NNL-1" value="" style="endArrow=classic;html=1;rounded=0;strokeColor=#23445D;exitX=1;exitY=1;exitDx=0;exitDy=0;" edge="1" parent="1" source="RjyrQE5ZJLNY4DenGKnt-1">
          <mxGeometry width="50" height="50" relative="1" as="geometry">
            <mxPoint x="532" y="-373" as="sourcePoint" />
            <mxPoint x="638" y="-436" as="targetPoint" />
            <Array as="points">
              <mxPoint x="395" y="-395" />
            </Array>
          </mxGeometry>
        </mxCell>
        <mxCell id="mGd0udFy5jh_83Vz7NNL-2" value="&lt;span style=&quot;background-color: rgb(0, 0, 0);&quot;&gt;Book Requested&lt;/span&gt;" style="edgeLabel;html=1;align=center;verticalAlign=middle;resizable=0;points=[];fontColor=#FFFFFF;" vertex="1" connectable="0" parent="mGd0udFy5jh_83Vz7NNL-1">
          <mxGeometry x="-0.0122" y="2" relative="1" as="geometry">
            <mxPoint x="-47" y="10" as="offset" />
          </mxGeometry>
        </mxCell>
        <mxCell id="mGd0udFy5jh_83Vz7NNL-4" value="" style="endArrow=classic;html=1;rounded=0;labelBackgroundColor=none;strokeColor=#23445D;fontColor=default;" edge="1" parent="1">
          <mxGeometry width="50" height="50" relative="1" as="geometry">
            <mxPoint x="516" y="-320" as="sourcePoint" />
            <mxPoint x="649" y="-321" as="targetPoint" />
            <Array as="points" />
          </mxGeometry>
        </mxCell>
        <mxCell id="mGd0udFy5jh_83Vz7NNL-5" value="Book Details" style="edgeLabel;html=1;align=center;verticalAlign=middle;resizable=0;points=[];labelBackgroundColor=none;fontColor=#FFFFFF;" vertex="1" connectable="0" parent="mGd0udFy5jh_83Vz7NNL-4">
          <mxGeometry x="0.0425" y="-2" relative="1" as="geometry">
            <mxPoint as="offset" />
          </mxGeometry>
        </mxCell>
        <mxCell id="byl4b6YBo5u8w9DTexUm-1" value="LOGICAL DFD" style="text;html=1;strokeColor=none;fillColor=none;align=center;verticalAlign=middle;whiteSpace=wrap;rounded=0;fontColor=#FFFFFF;" vertex="1" parent="1">
          <mxGeometry x="400" y="-599" width="105" height="30" as="geometry" />
        </mxCell>
        <mxCell id="byl4b6YBo5u8w9DTexUm-2" value="PHYSICAL DFD" style="text;html=1;strokeColor=none;fillColor=none;align=center;verticalAlign=middle;whiteSpace=wrap;rounded=0;fontColor=#FFFFFF;" vertex="1" parent="1">
          <mxGeometry x="416" y="-372" width="90" height="30" as="geometry" />
        </mxCell>
      </root>
    </mxGraphModel>
  </diagram>
</mxfile>
